<svg width="78" height="66" viewBox="0 0 78 66" fill="none" xmlns="http://www.w3.org/2000/svg">
<g clip-path="url(#clip0_1_2174)">
<path d="M5.05744 25.1237V0.388195H0V55.0011H5.05744V29.6459H9.80261V55.0011H14.8601V0.388195H9.80261V25.1237H5.05744ZM34.1394 55.0011L29.6251 0.31328H23.0131L18.424 55.0011H23.0877L23.6308 46.7333H28.6068L29.2313 55.0011H34.1326H34.1394ZM26.129 11.7821L28.3081 42.3678H23.9499L26.129 11.7821ZM50.7781 0.388195H45.9582L43.4668 41.1896L41.1384 0.388195H36.1624L40.1269 55.0011H46.0397L48.1373 22.8558L50.3911 55.0011H56.3039L60.2684 0.388195H55.6794L53.2695 41.891L50.7781 0.388195ZM74.7279 27.2281L70.4512 23.639C69.0527 22.3927 68.7405 21.5346 68.7405 19.2736V6.24518C68.7405 4.99886 69.2089 4.44722 70.5326 4.44722H71.1572C72.4809 4.44722 72.9493 4.99205 72.9493 6.24518V22.1612H77.9253V6.08853C77.9253 2.02951 75.9024 0 71.8564 0H69.7588C65.7128 0 63.6898 2.02951 63.6898 6.08853V19.8184C63.6898 23.5641 64.389 25.1986 66.7243 27.1532L71.2319 30.9739C72.7118 32.2202 73.024 33.0783 73.024 35.3462V49.076C73.024 50.3224 72.3995 50.8672 71.1572 50.8672H70.5326C69.2089 50.8672 68.6658 50.3224 68.6658 49.076V32.6901H63.6898V49.3076C63.6898 53.3666 65.6313 55.3961 69.6773 55.3961H71.9311C75.977 55.3961 77.9932 53.3666 77.9932 49.3076V34.8763C77.9932 31.1305 77.294 29.4143 74.7279 27.2281Z" fill="#EA5546"/>
<path d="M0.25116 62.4722V65.9659H2.56604V65.6458H0.617739V62.4722H0.25116Z" fill="#575756"/>
<path d="M4.4397 62.4722H4.07312V65.9659H4.4397V62.4722Z" fill="#575756"/>
<path d="M6.46942 62.4722V65.9659H6.836V64.4881H8.63496V64.168H6.836V62.7923H8.85898V62.4722H6.46942Z" fill="#575756"/>
<path d="M10.5154 62.4722V65.9659H12.9728V65.6458H10.882V64.3518H12.6809V64.0386H10.882V62.7923H12.8981V62.4722H10.5154Z" fill="#575756"/>
<path d="M15.695 65.9999C15.4371 65.9999 15.1859 65.959 14.9483 65.8705C14.7107 65.7888 14.5274 65.6798 14.3984 65.5436L14.541 65.2575C14.6632 65.3801 14.8261 65.4755 15.0366 65.5572C15.247 65.6389 15.4642 65.6798 15.6883 65.6798C15.9123 65.6798 16.082 65.6525 16.2245 65.5981C16.3603 65.5436 16.4621 65.4687 16.53 65.3733C16.5911 65.278 16.6251 65.1758 16.6251 65.0668C16.6251 64.9306 16.5843 64.8217 16.5097 64.7399C16.4282 64.6582 16.3264 64.5901 16.2042 64.5424C16.0752 64.4948 15.9394 64.4539 15.7901 64.413C15.6339 64.379 15.4846 64.3381 15.3353 64.2973C15.1859 64.2564 15.0433 64.2019 14.9144 64.127C14.7854 64.0589 14.6836 63.9636 14.6089 63.8478C14.5342 63.732 14.4935 63.5822 14.4935 63.3983C14.4935 63.228 14.541 63.0646 14.6292 62.9216C14.7175 62.7785 14.8601 62.6628 15.0501 62.5742C15.2402 62.4857 15.4846 62.4448 15.7765 62.4448C15.9734 62.4448 16.1635 62.4721 16.3603 62.5265C16.5504 62.581 16.7201 62.6559 16.8559 62.7513L16.7337 63.0441C16.5843 62.942 16.4282 62.8739 16.2585 62.8262C16.0888 62.7785 15.9259 62.7581 15.7765 62.7581C15.5661 62.7581 15.3963 62.7853 15.2606 62.8398C15.1248 62.8943 15.023 62.9692 14.9619 63.0646C14.894 63.1599 14.8668 63.2689 14.8668 63.3847C14.8668 63.5209 14.9076 63.6298 14.9822 63.7116C15.0569 63.7933 15.1655 63.8614 15.2877 63.9091C15.4167 63.9567 15.5525 63.9976 15.7086 64.0317C15.858 64.0657 16.0141 64.1066 16.1635 64.1542C16.3128 64.1951 16.4554 64.2496 16.5843 64.3177C16.7133 64.3858 16.8151 64.4743 16.8898 64.5901C16.9645 64.7059 17.0052 64.8489 17.0052 65.0328C17.0052 65.2031 16.9577 65.3597 16.8695 65.5027C16.7744 65.6457 16.6319 65.7615 16.4418 65.85C16.2517 65.9386 16.0073 65.9794 15.7086 65.9794" fill="#575756"/>
<path d="M18.0914 62.4722V62.7923H19.3133V65.9659H19.6799V62.7923H20.9018V62.4722H18.0914Z" fill="#575756"/>
<path d="M24.5812 62.4722L23.3864 64.4336L22.1916 62.4722H21.7979L23.1896 64.7605V65.9659H23.5561V64.7605L24.9478 62.4722H24.5812Z" fill="#575756"/>
<path d="M26.3394 62.4722V65.9659H28.6543V65.6458H26.706V62.4722H26.3394Z" fill="#575756"/>
<path d="M30.1614 62.4722V65.9659H32.6256V65.6458H30.528V64.3518H32.3269V64.0386H30.528V62.7923H32.5509V62.4722H30.1614Z" fill="#575756"/>
<path d="M39.129 62.4722V64.0318H36.9499V62.4722H36.5833V65.9659H36.9499V64.3587H39.129V65.9659H39.4888V62.4722H39.129Z" fill="#575756"/>
<path d="M43.0392 65.6661C43.2496 65.6661 43.4397 65.6321 43.6162 65.5572C43.7927 65.4823 43.9488 65.3869 44.0778 65.2507C44.2068 65.1213 44.3086 64.9647 44.3833 64.7944C44.458 64.6173 44.4919 64.4266 44.4919 64.2155C44.4919 64.0044 44.458 63.8137 44.3833 63.6366C44.3086 63.4596 44.2068 63.3097 44.0778 63.1803C43.9488 63.0509 43.7927 62.9488 43.6162 62.8739C43.4397 62.7989 43.2496 62.7649 43.0392 62.7649C42.8287 62.7649 42.6387 62.7989 42.4554 62.8739C42.2721 62.9488 42.1227 63.0441 41.987 63.1803C41.858 63.3097 41.7562 63.4664 41.6815 63.6366C41.6068 63.8137 41.5661 64.0044 41.5661 64.2155C41.5661 64.4266 41.6068 64.6105 41.6815 64.7876C41.7562 64.9647 41.858 65.1145 41.987 65.2507C42.1159 65.3801 42.2721 65.4823 42.4554 65.5572C42.6319 65.6253 42.8287 65.6661 43.0392 65.6661ZM43.0392 65.993C42.7744 65.993 42.5368 65.9522 42.3128 65.8636C42.0888 65.7751 41.8919 65.6525 41.729 65.4891C41.5661 65.3256 41.4371 65.1417 41.3488 64.9238C41.2606 64.7059 41.2131 64.4743 41.2131 64.2155C41.2131 63.9567 41.2606 63.7252 41.3488 63.5072C41.4371 63.2893 41.5661 63.1054 41.729 62.942C41.8919 62.7785 42.0888 62.6559 42.306 62.5674C42.53 62.4789 42.7744 62.438 43.0392 62.438C43.3039 62.438 43.5415 62.4857 43.7656 62.5674C43.9896 62.6559 44.1797 62.7785 44.3426 62.942C44.5055 63.0986 44.6345 63.2893 44.7227 63.5072C44.811 63.7252 44.8585 63.9567 44.8585 64.2155C44.8585 64.4743 44.811 64.7059 44.7227 64.9238C44.6277 65.1417 44.5055 65.3256 44.3426 65.4891C44.1797 65.6525 43.9828 65.7751 43.7656 65.8636C43.5415 65.9522 43.3039 65.993 43.0392 65.993Z" fill="#575756"/>
<path d="M47.5467 65.9999C47.2888 65.9999 47.0376 65.959 46.8 65.8705C46.5624 65.7888 46.3791 65.6798 46.2501 65.5436L46.3927 65.2575C46.5149 65.3801 46.6778 65.4755 46.8882 65.5572C47.0987 65.6389 47.3159 65.6798 47.5399 65.6798C47.764 65.6798 47.9337 65.6525 48.0762 65.5981C48.212 65.5436 48.3138 65.4687 48.3817 65.3733C48.4496 65.278 48.4768 65.1758 48.4768 65.0668C48.4768 64.9306 48.436 64.8217 48.3613 64.7399C48.2867 64.6582 48.1849 64.5901 48.0559 64.5424C47.9269 64.4948 47.7911 64.4539 47.635 64.413C47.4856 64.379 47.3295 64.3381 47.1802 64.2973C47.0308 64.2564 46.8882 64.2019 46.7593 64.127C46.6303 64.0589 46.5285 63.9636 46.4538 63.8478C46.3791 63.732 46.3384 63.5822 46.3384 63.3983C46.3384 63.228 46.3859 63.0646 46.4741 62.9216C46.5624 62.7785 46.705 62.6628 46.895 62.5742C47.0851 62.4857 47.3227 62.4448 47.6214 62.4448C47.8183 62.4448 48.0084 62.4721 48.2052 62.5265C48.3953 62.581 48.565 62.6559 48.7008 62.7513L48.5786 63.0441C48.4292 62.942 48.2731 62.8739 48.1034 62.8262C47.9337 62.7785 47.7708 62.7581 47.6214 62.7581C47.411 62.7581 47.2412 62.7853 47.1055 62.8398C46.9697 62.8943 46.8679 62.9692 46.8068 63.0646C46.7389 63.1599 46.7117 63.2689 46.7117 63.3847C46.7117 63.5209 46.7525 63.6298 46.8271 63.7116C46.9086 63.7933 47.0104 63.8614 47.1326 63.9091C47.2616 63.9567 47.3974 63.9976 47.5535 64.0317C47.7029 64.0657 47.859 64.1066 48.0083 64.1542C48.1577 64.1951 48.3003 64.2496 48.4224 64.3177C48.5514 64.3858 48.6533 64.4743 48.7347 64.5901C48.8094 64.7059 48.8501 64.8489 48.8501 65.0328C48.8501 65.2031 48.8026 65.3597 48.7076 65.5027C48.6125 65.6457 48.47 65.7615 48.2799 65.85C48.0898 65.9386 47.8454 65.9794 47.5467 65.9794" fill="#575756"/>
<path d="M50.907 64.7196L50.7441 64.5425H51.8303C52.1765 64.5425 52.4412 64.4676 52.6245 64.3178C52.8078 64.168 52.8961 63.95 52.8961 63.6776C52.8961 63.4052 52.8078 63.1805 52.6245 63.0306C52.4412 62.8808 52.1765 62.7991 51.8303 62.7991H50.7441L50.907 62.622V64.7196ZM50.5405 65.9659V62.4722H51.8439C52.1358 62.4722 52.3937 62.5198 52.6042 62.6152C52.8146 62.7105 52.9775 62.8467 53.0929 63.0238C53.2084 63.2009 53.2627 63.4188 53.2627 63.6708C53.2627 63.9228 53.2084 64.1271 53.0929 64.3042C52.9775 64.4812 52.8146 64.6175 52.6042 64.7128C52.3937 64.8081 52.1358 64.8558 51.8439 64.8558H50.7441L50.907 64.6787V65.9523H50.5405V65.9659Z" fill="#575756"/>
<path d="M55.3196 62.4722H54.953V65.9659H55.3196V62.4722Z" fill="#575756"/>
<path d="M56.7995 62.4722V62.7923H58.0282V65.9659H58.3948V62.7923H59.6167V62.4722H56.7995Z" fill="#575756"/>
<path d="M62.1353 62.8536L62.9702 64.7332H61.2935L62.1353 62.8536ZM61.9587 62.4722L60.3702 65.9659H60.7504L61.1645 65.0329H63.106L63.5201 65.9659H63.9071L62.3185 62.4722H61.9587Z" fill="#575756"/>
<path d="M65.387 62.4722V65.9659H67.7018V65.6458H65.7535V62.4722H65.387Z" fill="#575756"/>
<path d="M69.5754 62.4722H69.2089V65.9659H69.5754V62.4722Z" fill="#575756"/>
<path d="M71.0554 62.4722V62.7923H72.2841V65.9659H72.6507V62.7923H73.8726V62.4722H71.0554Z" fill="#575756"/>
<path d="M77.5452 62.4722L76.3504 64.4336L75.1624 62.4722H74.7687L76.1603 64.7605V65.9659H76.5201V64.7605L77.9118 62.4722H77.5452Z" fill="#575756"/>
</g>
<defs>
<clipPath id="clip0_1_2174">
<rect width="78" height="66" fill="white"/>
</clipPath>
</defs>
</svg>
